<?xml version="1.0" encoding="UTF-8" standalone="no"?>
<svg
   xmlns:dc="http://purl.org/dc/elements/1.1/"
   xmlns:cc="http://creativecommons.org/ns#"
   xmlns:rdf="http://www.w3.org/1999/02/22-rdf-syntax-ns#"
   xmlns:svg="http://www.w3.org/2000/svg"
   xmlns="http://www.w3.org/2000/svg"
   viewBox="0 0 7256.6934 4081.8933"
   height="4081.8933"
   width="7256.6934"
   xml:space="preserve"
   id="svg2"
   version="1.1"><metadata
     id="metadata8"><rdf:RDF><cc:Work
         rdf:about=""><dc:format>image/svg+xml</dc:format><dc:type
           rdf:resource="http://purl.org/dc/dcmitype/StillImage" /></cc:Work></rdf:RDF></metadata><defs
     id="defs6"><clipPath
       id="clipPath22"
       clipPathUnits="userSpaceOnUse"><path
         id="path20"
         d="M 0,3061.417 H 5442.52 V 0 H 0 Z" /></clipPath></defs><g
     transform="matrix(1.3333333,0,0,-1.3333333,0,4081.8933)"
     id="g10"><text
       id="text14"
       style="font-variant:normal;font-weight:bold;font-stretch:normal;font-size:849.89093018px;font-family:'Bergen Text Bold';-inkscape-font-specification:BergenText-Bold;writing-mode:lr-tb;fill:#0f0a3c;fill-opacity:1;fill-rule:nonzero;stroke:none"
       transform="matrix(1,0,0,-1,1386.2446,1229.667)"><tspan
         id="tspan12"
         y="0"
         x="0 501.43564 703.70966 919.58197 1121.856 1575.6978 1900.3561 2327.0012 2665.2578 3125.8987">Hi Interns</tspan></text>
<g
       id="g16"><g
         clip-path="url(#clipPath22)"
         id="g18"><g
           transform="translate(851.5537,1220.0385)"
           id="g24"><path
             id="path26"
             style="fill:#0f0a3c;fill-opacity:1;fill-rule:nonzero;stroke:none"
             d="m 0,0 c -20.659,0 -37.407,16.748 -37.407,37.407 v 149.626 c 0,20.659 16.748,37.407 37.407,37.407 20.659,0 37.407,-16.748 37.407,-37.407 V 37.407 C 37.407,16.748 20.659,0 0,0" /></g><g
           transform="translate(1015.5679,1220.0385)"
           id="g28"><path
             id="path30"
             style="fill:#0f0a3c;fill-opacity:1;fill-rule:nonzero;stroke:none"
             d="m 0,0 c -20.659,0 -37.407,16.748 -37.407,37.407 v 149.626 c 0,20.659 16.748,37.407 37.407,37.407 20.659,0 37.407,-16.748 37.407,-37.407 V 37.407 C 37.407,16.748 20.659,0 0,0" /></g><g
           transform="translate(1176.4517,1533.5365)"
           id="g32"><path
             id="path34"
             style="fill:#0f0a3c;fill-opacity:1;fill-rule:nonzero;stroke:none"
             d="m 0,0 0.16,0.247 -63.118,40.166 c 2.096,3.291 52.392,80.628 146.656,80.628 20.659,0 37.407,-16.748 37.407,-37.407 0,-20.659 -16.748,-37.407 -37.407,-37.407 C 31.101,46.227 1.245,1.885 0,0" /></g><g
           transform="translate(697.6108,1501.7123)"
           id="g36"><path
             id="path38"
             style="fill:#0f0a3c;fill-opacity:1;fill-rule:nonzero;stroke:none"
             d="m 0,0 c -5.932,0 -11.948,1.416 -17.551,4.4 -3.445,1.835 -84.435,46.009 -91.713,139.992 -1.596,20.597 13.808,38.59 34.406,40.183 20.608,1.596 38.589,-13.808 40.183,-34.406 C -30.598,97.524 17.138,70.686 17.619,70.43 35.853,60.719 42.763,38.064 33.048,19.83 26.321,7.199 13.378,0 0,0" /></g><g
           transform="translate(836.4106,1774.9843)"
           id="g40"><path
             id="path42"
             style="fill:#80ed99;fill-opacity:1;fill-rule:nonzero;stroke:none"
             d="m 0,0 c 3.407,13.915 2.558,36.923 -5.388,48.843 -16.319,24.478 -36.717,36.717 -20.399,69.355 27.368,54.734 -63.925,-32.26 -70.719,-128.321 -5.337,-75.452 54.008,-39.372 79.717,-20.419 7.331,5.406 12.539,13.185 14.706,22.032 z" /></g><g
           transform="translate(1032.3047,1332.2592)"
           id="g44"><path
             id="path46"
             style="fill:#80ed99;fill-opacity:1;fill-rule:nonzero;stroke:none"
             d="m 0,0 h -97.305 -97.305 c -39.875,0 -75.975,16.162 -102.106,42.293 -26.132,26.132 -42.294,62.231 -42.294,102.106 v 97.306 97.305 c 0,39.874 16.162,75.974 42.294,102.106 26.131,26.131 62.231,42.293 102.106,42.293 H -97.305 0 c 39.875,0 75.975,-16.162 102.106,-42.293 C 128.237,414.984 144.4,378.884 144.4,339.01 V 241.705 144.399 C 144.4,104.524 128.237,68.425 102.106,42.293 75.975,16.162 39.875,0 0,0" /></g><g
           transform="translate(1081.6416,1616.1283)"
           id="g48"><path
             id="path50"
             style="fill:#ffffff;fill-opacity:1;fill-rule:nonzero;stroke:none"
             d="m 0,0 c 0,-38.471 -31.187,-69.658 -69.658,-69.658 -38.471,0 -69.658,31.187 -69.658,69.658 0,38.471 31.187,69.658 69.658,69.658 C -31.187,69.658 0,38.471 0,0" /></g><g
           transform="translate(1081.6416,1616.1283)"
           id="g52"><path
             id="path54"
             style="fill:none;stroke:#0f0a3c;stroke-width:5;stroke-linecap:butt;stroke-linejoin:miter;stroke-miterlimit:10;stroke-dasharray:none;stroke-opacity:1"
             d="m 0,0 c 0,-38.471 -31.187,-69.658 -69.658,-69.658 -38.471,0 -69.658,31.187 -69.658,69.658 0,38.471 31.187,69.658 69.658,69.658 C -31.187,69.658 0,38.471 0,0 Z" /></g><g
           transform="translate(1033.6553,1616.1283)"
           id="g56"><path
             id="path58"
             style="fill:#060201;fill-opacity:1;fill-rule:nonzero;stroke:none"
             d="m 0,0 c 0,-11.969 -9.703,-21.671 -21.671,-21.671 -11.969,0 -21.672,9.702 -21.672,21.671 0,11.969 9.703,21.671 21.672,21.671 C -9.703,21.671 0,11.969 0,0" /></g><g
           transform="translate(927.6733,1616.1283)"
           id="g60"><path
             id="path62"
             style="fill:#ffffff;fill-opacity:1;fill-rule:nonzero;stroke:none"
             d="m 0,0 c 0,-38.471 -31.187,-69.658 -69.658,-69.658 -38.471,0 -69.658,31.187 -69.658,69.658 0,38.471 31.187,69.658 69.658,69.658 C -31.187,69.658 0,38.471 0,0" /></g><g
           transform="translate(927.6733,1616.1283)"
           id="g64"><path
             id="path66"
             style="fill:none;stroke:#0f0a3c;stroke-width:5;stroke-linecap:butt;stroke-linejoin:miter;stroke-miterlimit:10;stroke-dasharray:none;stroke-opacity:1"
             d="m 0,0 c 0,-38.471 -31.187,-69.658 -69.658,-69.658 -38.471,0 -69.658,31.187 -69.658,69.658 0,38.471 31.187,69.658 69.658,69.658 C -31.187,69.658 0,38.471 0,0 Z" /></g><g
           transform="translate(879.687,1616.1283)"
           id="g68"><path
             id="path70"
             style="fill:#060201;fill-opacity:1;fill-rule:nonzero;stroke:none"
             d="m 0,0 c 0,-11.969 -9.703,-21.671 -21.671,-21.671 -11.97,0 -21.672,9.702 -21.672,21.671 0,11.969 9.702,21.671 21.672,21.671 C -9.703,21.671 0,11.969 0,0" /></g><g
           transform="translate(989.5508,1498.1029)"
           id="g72"><path
             id="path74"
             style="fill:#0f0a3c;fill-opacity:1;fill-rule:nonzero;stroke:none"
             d="m 0,0 c -35.641,-43.218 -112.983,-24.721 -113.761,-24.527 -5.045,1.256 -10.171,-1.825 -11.428,-6.879 -1.261,-5.059 1.819,-10.18 6.877,-11.439 1.629,-0.406 19.763,-4.777 43.179,-4.777 28.887,0 65.812,6.653 89.695,35.613 3.315,4.022 2.744,9.969 -1.276,13.285 C 9.26,4.593 3.314,4.021 0,0" /></g></g></g></g></svg>