<svg id="Calque_1" data-name="Calque 1" xmlns="http://www.w3.org/2000/svg" viewBox="0 0 4318.23 694.07">
    <defs>
        <style>
            .cls-1 {
                font-size: 849.89px;
                font-family: BergenText-Bold, Bergen Text;
                font-weight: 700;
                letter-spacing: -0.05em;
            }
            .cls-1,
            .cls-5 {
                fill: #0f0a3c;
            }
            .cls-2 {
                letter-spacing: -0.06em;
            }
            .cls-3 {
                letter-spacing: -0.07em;
            }
            .cls-4 {
                letter-spacing: -0.05em;
            }
            .cls-6 {
                fill: #80ed99;
            }
            .cls-7 {
                fill: #fff;
                stroke: #0f0a3c;
                stroke-miterlimit: 10;
                stroke-width: 5px;
            }
            .cls-8 {
                fill: #060201;
            }
        </style>
    </defs>
    <text class="cls-1" transform="translate(798.01 680.48)">Hi
        <tspan x="919.56" y="0">I</tspan>
        <tspan class="cls-2" x="1121.83" y="0">n</tspan>
        <tspan class="cls-3" x="1575.68" y="0">te</tspan>
        <tspan class="cls-4" x="2326.99" y="0">rns</tspan>
    </text><path class="cls-5" d="M263.32,690.11a37.41,37.41,0,0,1-37.41-37.41V503.08a37.41,37.41,0,0,1,74.82,0V652.7A37.41,37.41,0,0,1,263.32,690.11Z"/><path class="cls-5" d="M427.33,690.11a37.41,37.41,0,0,1-37.4-37.41V503.08a37.41,37.41,0,1,1,74.81,0V652.7A37.41,37.41,0,0,1,427.33,690.11Z"/><path class="cls-5" d="M588.22,376.61l.16-.24L525.26,336.2c2.1-3.29,52.39-80.63,146.66-80.63a37.41,37.41,0,0,1,0,74.82C619.32,330.39,589.46,374.73,588.22,376.61Z"/><path class="cls-5" d="M109.38,408.44A37.28,37.28,0,0,1,91.83,404c-3.45-1.84-84.44-46-91.72-140a37.41,37.41,0,1,1,74.59-5.78c4.08,52.64,51.82,79.48,52.3,79.74a37.41,37.41,0,0,1-17.62,70.43Z"/><path class="cls-6" d="M248.18,135.17c3.4-13.92,2.56-36.93-5.39-48.85C226.47,61.84,206.07,49.61,222.39,17c27.37-54.74-63.93,32.26-70.72,128.32-5.34,75.45,54,39.37,79.72,20.42a38.85,38.85,0,0,0,14.7-22Z"/><path class="cls-6" d="M444.07,577.89H249.46a144.4,144.4,0,0,1-144.4-144.4V238.88a144.42,144.42,0,0,1,144.4-144.4H444.07a144.4,144.4,0,0,1,144.4,144.4V433.49a144.39,144.39,0,0,1-144.4,144.4Z"/><circle class="cls-7" cx="423.75" cy="294.02" r="69.66"/><circle class="cls-8" cx="423.75" cy="294.02" r="21.67"/><circle class="cls-7" cx="269.78" cy="294.02" r="69.66"/><circle class="cls-8" cx="269.78" cy="294.02" r="21.67"/><path class="cls-5" d="M401.32,412.05c-35.64,43.21-113,24.72-113.76,24.52A9.44,9.44,0,0,0,283,454.89a193.62,193.62,0,0,0,43.17,4.78c28.89,0,65.82-6.65,89.7-35.61a9.44,9.44,0,1,0-14.56-12Z"/></svg>
